Coordinates
version=1
nRows=54
nColumns=12
inDegrees=yes

Units are S.I. units (second, meters, Newtons, ...)
Angles are in degrees

endheader
time	SC_y	SC_z	SC_x	AC_y	AC_z	AC_x	GH_y	GH_z	GH_yy	EL_x	PS_y
       0.0              -46.29          12.77          47.01          47.28         -19.92         -8.825         -61.98          63.25         -48.33          91.66          113.1
   0.02407              -46.29          12.78          47.01          47.28         -19.92         -8.823         -61.96          63.24         -48.32          91.65          113.1
   0.04814              -46.28          12.78          47.01          47.29         -19.92         -8.822         -61.94          63.23          -48.3          91.64          113.1
   0.07221              -46.28          12.78          47.01          47.29         -19.92          -8.82         -61.91          63.22         -48.29          91.63          113.1
   0.09628              -46.28          12.78          47.01          47.29         -19.91         -8.819         -61.89          63.21         -48.27          91.62          113.1
    0.1203              -46.28          12.79          47.02          47.29         -19.91         -8.817         -61.86          63.19         -48.25          91.61          113.1
    0.1444              -46.28          12.79          47.02           47.3         -19.91         -8.815         -61.83          63.18         -48.24          91.59          113.1
    0.1685              -46.28           12.8          47.02           47.3         -19.91         -8.813          -61.8          63.16         -48.22          91.58          113.1
    0.1926              -46.28           12.8          47.02           47.3         -19.91         -8.811         -61.77          63.15          -48.2          91.56          113.1
    0.2166              -46.28           12.8          47.02          47.31         -19.91         -8.808         -61.73          63.13         -48.17          91.55          113.0
    0.2407              -46.27          12.81          47.02          47.31         -19.91         -8.806         -61.69          63.11         -48.15          91.53          113.0
    0.2648              -46.27          12.82          47.02          47.31         -19.91         -8.803         -61.65          63.09         -48.12          91.51          113.0
    0.2888              -46.27          12.82          47.03          47.32         -19.91           -8.8          -61.6          63.07          -48.1          91.49          113.0
    0.3129              -46.27          12.83          47.03          47.32         -19.91         -8.797         -61.56          63.05         -48.07          91.47          113.0
     0.337              -46.26          12.83          47.03          47.33         -19.91         -8.794          -61.5          63.02         -48.03          91.45          113.0
     0.361              -46.26          12.84          47.03          47.33         -19.91          -8.79         -61.45           63.0          -48.0          91.42          113.0
    0.3851              -46.26          12.85          47.04          47.34         -19.91         -8.786         -61.38          62.97         -47.96          91.39          113.0
    0.4092              -46.26          12.86          47.04          47.35         -19.91         -8.782         -61.31          62.94         -47.92          91.36          113.0
    0.4332              -46.25          12.87          47.04          47.35         -19.91         -8.777         -61.24           62.9         -47.87          91.33          113.0
    0.4573              -46.25          12.88          47.04          47.36         -19.91         -8.772         -61.16          62.86         -47.82           91.3          113.0
    0.4814              -46.25          12.89          47.05          47.37         -19.91         -8.766         -61.07          62.82         -47.77          91.26          112.9
    0.5055              -46.24           12.9          47.05          47.38         -19.91          -8.76         -60.97          62.77         -47.71          91.21          112.9
    0.5295              -46.24          12.92          47.06          47.39         -19.91         -8.753         -60.86          62.72         -47.64          91.17          112.9
    0.5536              -46.23          12.93          47.06           47.4         -19.91         -8.745         -60.74          62.67         -47.57          91.11          112.9
    0.5777              -46.23          12.95          47.07          47.41         -19.91         -8.737         -60.61           62.6         -47.48          91.05          112.9
    0.6017              -46.22          12.97          47.07          47.43         -19.91         -8.727         -60.46          62.53         -47.39          90.99          112.9
    0.6258              -46.21          12.99          47.08          47.45         -19.91         -8.717          -60.3          62.45         -47.29          90.91          112.8
    0.6499               -46.2          13.01          47.09          47.46          -19.9         -8.705         -60.11          62.37         -47.17          90.83          112.8
    0.6739              -46.19          13.04           47.1          47.48          -19.9         -8.691          -59.9          62.27         -47.04          90.74          112.8
     0.698              -46.18          13.07          47.11          47.51          -19.9         -8.676         -59.66          62.15          -46.9          90.63          112.7
    0.7221              -46.17          13.11          47.12          47.53          -19.9         -8.658         -59.38          62.02         -46.73          90.51          112.7
    0.7461              -46.16          13.15          47.13          47.56          -19.9         -8.638         -59.07          61.87         -46.53          90.37          112.6
    0.7702              -46.14          13.19          47.15           47.6          -19.9         -8.615          -58.7           61.7         -46.31          90.21          112.6
    0.7943              -46.12          13.25          47.16          47.64         -19.89         -8.588         -58.28           61.5         -46.05          90.02          112.5
    0.8184               -46.1          13.31          47.18          47.69         -19.89         -8.556         -57.78          61.27         -45.74           89.8          112.5
    0.8424              -46.07          13.38          47.21          47.75         -19.89         -8.519          -57.2           61.0         -45.38          89.55          112.4
    0.8665              -46.04          13.47          47.24          47.81         -19.88         -8.475         -56.51          60.67         -44.96          89.24          112.3
    0.8906              -46.01          13.58          47.27          47.89         -19.88         -8.422         -55.68          60.28         -44.44          88.87          112.1
    0.9146              -45.96          13.71          47.31          47.99         -19.87         -8.357         -54.67           59.8         -43.83          88.43          112.0
    0.9387              -45.91          13.86          47.36          48.11         -19.87         -8.279         -53.45          59.22         -43.07          87.89          111.8
    0.9628              -45.84          14.06          47.43          48.26         -19.86         -8.182         -51.93          58.51         -42.14          87.22          111.6
    0.9868              -45.75           14.3          47.51          48.44         -19.85         -8.061         -50.04          57.62         -40.97          86.38          111.3
     1.011              -45.65           14.6           47.6          48.67         -19.83         -7.909         -47.66           56.5         -39.51          85.33          110.9
     1.035              -45.51          14.99          47.73          48.96         -19.82         -7.716         -44.64          55.07         -37.64          83.99          110.5
     1.059              -45.34          15.48          47.89          49.34         -19.79         -7.468         -40.76          53.24         -35.26          82.28          109.9
     1.083              -45.12          16.12           48.1          49.82         -19.76          -7.15         -35.79           50.9         -32.19          80.08          109.1
     1.107              -44.84          16.93          48.36          50.44         -19.73         -6.745         -29.44          47.91         -28.28          77.28          108.2
     1.131              -44.48          17.95          48.69          51.21         -19.68         -6.234         -21.46          44.15         -23.37          73.75          107.0
     1.155              -44.05          19.19          49.09          52.16         -19.63         -5.613         -11.74          39.56         -17.37          69.45          105.5
     1.179              -43.54          20.63          49.56          53.25         -19.56         -4.892        -0.4613          34.24         -10.43          64.47          103.8
     1.203               -43.0          22.19          50.07          54.43         -19.49         -4.112          11.75          28.49         -2.906          59.07          102.0
     1.228              -42.45          23.75          50.57          55.62         -19.42         -3.331          23.96          22.73          4.615          53.68          100.2
     1.252              -41.95          25.19          51.04          56.71         -19.36         -2.611          35.23          17.41          11.56          48.69          98.47
     1.276              -41.52          26.44          51.44          57.65          -19.3         -1.989          44.96          12.83          17.55           44.4           97.0
